<?xml version="1.0" encoding="UTF-8"?>
<svg version="1.1" xmlns="http://www.w3.org/2000/svg" width="659" height="362">
<path d="M0 0 C0.68557983 -0.00175232 1.37115967 -0.00350464 2.07751465 -0.00531006 C4.33319675 -0.00969189 6.58879958 -0.00679992 8.84448242 -0.00341797 C10.43185948 -0.00409291 12.01923645 -0.00506451 13.60661316 -0.00631714 C16.93615705 -0.00778988 20.26567408 -0.00565632 23.59521484 -0.00097656 C27.8128443 0.00466926 32.03040938 0.00147205 36.24803638 -0.00454903 C39.53165649 -0.00821017 42.81526206 -0.00699009 46.09888268 -0.00442123 C47.65063167 -0.00376452 49.20238208 -0.00453523 50.75412941 -0.00690079 C58.87505994 -0.01655055 66.96800793 0.11074735 75.07763672 0.56347656 C75.76790608 0.60062712 76.45817545 0.63777767 77.16936207 0.676054 C92.79059642 1.64430982 105.15016308 7.77047397 115.88745117 19.12939453 C124.90721097 30.14720238 125.98835558 41.3353244 124.88745117 55.12939453 C123.41406915 64.78004675 118.05807628 72.6583426 110.88745117 79.12939453 C110.24163086 79.81582031 110.24163086 79.81582031 109.58276367 80.51611328 C99.32279045 90.64318529 83.51968991 93.58912782 69.88745117 96.12939453 C70.96381836 96.57927734 72.04018555 97.02916016 73.14916992 97.49267578 C93.92022788 106.50373726 105.30160183 119.59792728 114.88745117 140.12939453 C115.53177474 141.4992839 116.17631187 142.86907284 116.82104492 144.23876953 C117.83305831 146.39122314 118.8435902 148.54431437 119.84985352 150.69946289 C121.99405594 155.28025899 124.22099309 159.80834495 126.51245117 164.31689453 C130.27743518 171.78086204 133.89447782 179.31650771 137.46893311 186.87319946 C138.12144689 188.2491701 138.77740036 189.62351498 139.43682861 190.9961853 C140.36880152 192.93853592 141.28780506 194.88652634 142.20385742 196.83642578 C142.74469971 197.97571533 143.28554199 199.11500488 143.84277344 200.28881836 C144.88745117 203.12939453 144.88745117 203.12939453 143.88745117 206.12939453 C139.24271135 206.2035552 134.59831618 206.25800068 129.953125 206.29418945 C128.37298581 206.30927548 126.79288848 206.32974703 125.21289062 206.35571289 C122.94154532 206.39210579 120.67075359 206.40912215 118.39916992 206.42236328 C117.33964363 206.44558907 117.33964363 206.44558907 116.25871277 206.46928406 C111.37496233 206.4709596 111.37496233 206.4709596 109.02807617 204.82666016 C107.04959348 201.8826508 105.65018854 198.66627833 104.19995117 195.44189453 C103.48538469 193.88908344 102.76920166 192.33701537 102.05151367 190.78564453 C101.50865723 189.61001953 101.50865723 189.61001953 100.95483398 188.41064453 C99.38621294 185.05812967 97.74020256 181.74725017 96.07495117 178.44189453 C95.75308838 177.80227783 95.43122559 177.16266113 95.09960938 176.50366211 C94.41005537 175.13469216 93.72001351 173.76596786 93.02954102 172.39746094 C90.80511105 167.97998458 88.59797159 163.55384257 86.38745117 159.12939453 C85.44741167 157.24915387 84.50730839 155.36894509 83.56713867 153.48876953 C78.58276367 143.52001953 78.58276367 143.52001953 77.52392578 141.40136719 C76.85911795 140.07239338 76.19329498 138.74392682 75.52636719 137.41601562 C74.17051082 134.71416623 72.82980056 132.00811226 71.53198242 129.27783203 C65.70763254 117.10135945 57.92248139 106.81459371 45.36401367 101.00048828 C39.35159598 98.88571045 33.09041864 97.55929937 26.88745117 96.12939453 C25.55350039 95.79854079 24.22000437 95.46583304 22.88745117 95.12939453 C22.88929476 95.68930777 22.89113834 96.249221 22.8930378 96.8261013 C22.93716913 110.4378116 22.97015689 124.0495094 22.99107552 137.66127586 C23.00153045 144.24377475 23.01572076 150.82622215 23.03833008 157.40869141 C23.05999758 163.75639988 23.07200691 170.10405871 23.07720566 176.4518013 C23.0809124 178.87840176 23.08815028 181.30499939 23.09891129 183.73157883 C23.11334521 187.11994128 23.11543252 190.50809633 23.11450195 193.89648438 C23.1216925 194.90852432 23.12888306 195.92056427 23.1362915 196.96327209 C23.13354218 197.88316422 23.13079285 198.80305634 23.12796021 199.75082397 C23.12980379 200.55278387 23.13164738 201.35474377 23.13354683 202.18100548 C22.88745117 204.12939453 22.88745117 204.12939453 20.88745117 206.12939453 C18.39001255 206.31661305 16.00556434 206.3851922 13.50854492 206.35986328 C12.78127701 206.35940506 12.05400909 206.35894684 11.30470276 206.35847473 C9.76724618 206.35545289 8.22979265 206.34756858 6.69238281 206.33520508 C4.33086382 206.31694026 1.96973657 206.31469543 -0.3918457 206.31494141 C-1.88338557 206.31002656 -3.37492277 206.30419839 -4.86645508 206.29736328 C-5.5768544 206.29625046 -6.28725372 206.29513763 -7.0191803 206.29399109 C-11.99649518 206.24544818 -11.99649518 206.24544818 -13.11254883 205.12939453 C-13.22363517 203.21038299 -13.2638995 201.28725779 -13.27749634 199.36508179 C-13.28873032 198.11060745 -13.29996429 196.85613312 -13.3115387 195.56364441 C-13.31904074 194.1589666 -13.32643764 192.75428823 -13.33374023 191.34960938 C-13.34495381 189.87893868 -13.35658597 188.40827113 -13.36860657 186.93760681 C-13.40009261 182.91606672 -13.42516381 178.89450968 -13.44880342 174.8729167 C-13.46928243 171.48480909 -13.49282211 168.0967255 -13.51634061 164.70863783 C-13.57215451 156.65848542 -13.6227698 148.60831152 -13.67016602 140.55810547 C-13.71314031 133.27127569 -13.76156955 125.9845095 -13.81567383 118.69775391 C-14.10588065 79.4941888 -14.37974891 40.32081113 -13.11254883 1.12939453 C-8.68690973 0.27748378 -4.50408532 0.00290806 0 0 Z M22.88745117 4.12939453 C22.88745117 32.50939453 22.88745117 60.88939453 22.88745117 90.12939453 C31.01036356 94.19085073 45.69994317 90.55431761 53.97338867 88.28173828 C66.58289486 83.9196262 78.15222119 77.16962048 84.38745117 64.94189453 C85.2696649 63.02615717 86.10505842 61.08801963 86.88745117 59.12939453 C87.44819336 57.74880859 87.44819336 57.74880859 88.02026367 56.34033203 C90.85210195 45.85487679 90.14275458 32.66378399 84.88745117 23.12939453 C78.95689854 13.38756455 71.80009348 8.26798634 60.88745117 5.12939453 C48.46246257 2.64439681 35.55850304 4.12939453 22.88745117 4.12939453 Z " fill="#010000" transform="translate(123.112548828125,78.87060546875)"/>
<path d="M0 0 C1.44439453 -0.00580078 1.44439453 -0.00580078 2.91796875 -0.01171875 C4.32369141 -0.00978516 4.32369141 -0.00978516 5.7578125 -0.0078125 C6.59715332 -0.00668457 7.43649414 -0.00555664 8.30126953 -0.00439453 C11.21535243 0.14211125 14.0072507 0.59888895 16.875 1.125 C23.08131935 17.62263411 29.01757666 34.18398176 34.72480774 50.8611145 C37.80596952 59.85578823 40.93290219 68.83458615 44.0625 77.8125 C44.37928711 78.72135956 44.69607422 79.63021912 45.02246094 80.56661987 C50.41846206 96.03732746 55.90035704 111.47642532 61.43115234 126.89941406 C64.45259293 135.32725995 67.45771619 143.76000663 70.4140625 152.2109375 C70.69391495 153.00968796 70.9737674 153.80843842 71.26210022 154.63139343 C72.57851755 158.38931456 73.89092921 162.14853938 75.19604492 165.91040039 C75.65785995 167.23069463 76.119845 168.55092941 76.58203125 169.87109375 C76.9788208 171.01247803 77.37561035 172.1538623 77.78442383 173.32983398 C78.81603787 176.2687449 78.81603787 176.2687449 80.875 179.125 C83.19116786 171.96310522 85.50167144 164.79939963 87.80859375 157.63452148 C88.5908777 155.20703668 89.37436782 152.77994018 90.15917969 150.35327148 C94.01421381 138.43076507 97.84849054 126.5067507 101.31640625 114.46484375 C101.55324127 113.64796585 101.79007629 112.83108795 102.03408813 111.98945618 C112.20769775 76.02615098 107.70018854 36.8895121 105.875 0.125 C117.425 0.125 128.975 0.125 140.875 0.125 C139.74996811 10.25028705 139.74996811 10.25028705 138.50244141 14.16748047 C138.22272491 15.0598642 137.94300842 15.95224792 137.65481567 16.87167358 C137.34849213 17.81894318 137.04216858 18.76621277 136.7265625 19.7421875 C136.40259491 20.76672028 136.07862732 21.79125305 135.74484253 22.84683228 C134.67138373 26.23387419 133.5857977 29.61689539 132.5 33 C131.73438927 35.40669857 130.96942837 37.81360394 130.20507812 40.22070312 C127.77540593 47.85988166 125.32812251 55.49332727 122.875 63.125 C122.4780896 64.35980103 122.0811792 65.59460205 121.67224121 66.86682129 C118.11755363 77.91996884 114.55519172 88.9706378 110.98730469 100.01953125 C105.50931453 116.99256374 100.10153114 133.98668224 94.75 151 C94.39501434 152.12755707 94.04002869 153.25511414 93.67428589 154.4168396 C90.37477519 164.90079799 87.08619012 175.38736871 83.88671875 185.90234375 C83.66920959 186.61461121 83.45170044 187.32687866 83.2276001 188.06072998 C82.2699257 191.19699487 81.31927828 194.33491571 80.38427734 197.47802734 C80.07312988 198.50234863 79.76198242 199.52666992 79.44140625 200.58203125 C79.18302979 201.44803955 78.92465332 202.31404785 78.65844727 203.20629883 C77.875 205.125 77.875 205.125 75.875 206.125 C74.1345583 206.20949628 72.39090278 206.23223024 70.6484375 206.22265625 C69.6171875 206.21943359 68.5859375 206.21621094 67.5234375 206.21289062 C66.44320312 206.20451172 65.36296875 206.19613281 64.25 206.1875 C62.61804688 206.18073242 62.61804688 206.18073242 60.953125 206.17382812 C58.26036211 206.16201776 55.56770812 206.14554778 52.875 206.125 C49.31245075 199.47723157 46.83927901 192.67113227 44.42578125 185.53515625 C43.78794703 183.67365284 43.1501108 181.81215012 42.51217175 179.95068264 C41.62259095 177.35038372 40.73815389 174.7483472 39.85369873 172.14630127 C37.90589808 166.41924984 35.94705657 160.69596118 33.98828125 154.97265625 C33.77409861 154.34622412 33.55991596 153.71979198 33.33924294 153.07437706 C29.65002001 142.29040033 25.82307193 131.56062801 21.94067383 120.8449707 C19.20177145 113.28068052 16.54664166 105.68764358 13.89987183 98.09072876 C12.40996008 93.81473255 10.91572709 89.54024588 9.421875 85.265625 C9.12180038 84.40673172 8.82172577 83.54783844 8.51255798 82.66291809 C5.87019689 75.1032051 3.20943784 67.55007028 0.54104614 59.99951172 C-0.18294129 57.95040255 -0.90615909 55.90102333 -1.62915039 53.8515625 C-4.02284839 47.06766173 -6.42216307 40.28582592 -8.83201599 33.50764465 C-10.05302277 30.07063352 -11.27022984 26.63228375 -12.48678589 23.19369507 C-13.07501962 21.53392808 -13.66494283 19.8747588 -14.25662231 18.21621704 C-15.07641225 15.9177747 -15.89040462 13.6173561 -16.703125 11.31640625 C-16.94935104 10.63060486 -17.19557709 9.94480347 -17.44926453 9.23822021 C-18.45020431 6.38819895 -19.125 4.17165534 -19.125 1.125 C-12.71593977 0.17045911 -6.47450778 -0.02621258 0 0 Z " fill="#010101" transform="translate(407.125,78.875)"/>
<path d="M0 0 C1.10211319 -0.00281982 2.20422638 -0.00563965 3.33973694 -0.00854492 C4.55435104 -0.00652069 5.76896515 -0.00449646 7.02038574 -0.00241089 C8.29518295 -0.00416321 9.56998016 -0.00591553 10.88340759 -0.00772095 C14.3853875 -0.01228929 17.88733803 -0.01050817 21.38931847 -0.00734186 C25.04926001 -0.00481518 28.70919899 -0.00715666 32.36914062 -0.00872803 C38.5160772 -0.01054882 44.66300177 -0.00814578 50.80993652 -0.00338745 C57.92291046 0.002055 65.03585574 0.00029228 72.14882898 -0.00521386 C78.24906488 -0.00974755 84.34929213 -0.01039427 90.44952917 -0.00777519 C94.09591994 -0.00621383 97.74229722 -0.0060148 101.38868713 -0.00931168 C105.45213527 -0.01272881 109.51553377 -0.00799645 113.57897949 -0.00241089 C114.7935936 -0.00443512 116.0082077 -0.00645935 117.2596283 -0.00854492 C118.91279808 -0.00431519 118.91279808 -0.00431519 120.59936523 0 C122.04176197 0.00056554 122.04176197 0.00056554 123.51329803 0.0011425 C125.79968262 0.12698364 125.79968262 0.12698364 127.79968262 1.12698364 C127.79968262 11.02698364 127.79968262 20.92698364 127.79968262 31.12698364 C122.33613828 30.21639292 120.22367189 29.43753152 115.67468262 26.75198364 C92.07262761 13.55655421 66.16203369 5.76948431 39.23718262 4.56448364 C38.32388184 4.52130005 37.41058105 4.47811646 36.46960449 4.43362427 C34.24640271 4.32886607 32.02311555 4.22669347 29.79968262 4.12698364 C32.02279412 23.90097542 35.75113824 40.97239489 47.79968262 57.12698364 C48.41456543 57.95585083 49.02944824 58.78471802 49.66296387 59.63870239 C62.20651944 75.02940334 79.76732522 81.69972347 99.02575684 83.72268677 C100.61586863 83.87090718 102.2076403 84.00118193 103.79968262 84.12698364 C104.12968262 85.44698364 104.45968262 86.76698364 104.79968262 88.12698364 C81.36968262 88.12698364 57.93968262 88.12698364 33.79968262 88.12698364 C32.92982078 99.32592978 32.92982078 99.32592978 32.59655762 110.51370239 C32.58800751 111.75383842 32.58800751 111.75383842 32.57928467 113.01902771 C32.56995054 114.74892951 32.56334776 116.47884816 32.55944824 118.20877075 C32.54976251 120.79316662 32.51863445 123.37675799 32.48718262 125.96096802 C32.41613248 137.31932361 33.57254623 147.99628731 35.79968262 159.12698364 C36.0122168 160.23654419 36.22475098 161.34610474 36.44372559 162.48928833 C39.20624394 176.21500845 46.5720428 192.60475328 58.26452637 200.86917114 C64.71734544 204.57143686 70.36154079 206.1173884 77.79968262 205.12698364 C92.32067327 200.76296251 100.26007899 188.01359687 107.13952637 175.38479614 C109.19385834 171.35347176 111.06979468 167.30754616 112.79968262 163.12698364 C116.93750475 163.6394662 118.75053846 165.80129347 121.54968262 168.75198364 C125.32088139 172.66306368 129.1693321 176.25039736 133.40124512 179.65432739 C134.79968262 181.12698364 134.79968262 181.12698364 134.79968262 184.12698364 C128.87388086 190.75976826 121.45641306 195.71856309 113.79968262 200.12698364 C112.9991748 200.58975708 112.19866699 201.05253052 111.37390137 201.52932739 C108.89103823 202.8662537 106.39467361 204.02354173 103.79968262 205.12698364 C102.87929199 205.52143677 101.95890137 205.91588989 101.01062012 206.32229614 C82.31017748 212.95793708 60.89568876 210.64465715 43.21765137 202.47073364 C22.91049705 191.90295323 9.18526314 173.53232681 1.79968262 152.12698364 C-2.33781436 138.86101801 -4.38720198 126.39836628 -4.38562012 112.47634888 C-4.38780121 110.33039341 -4.4059847 108.18495753 -4.42492676 106.03909302 C-4.45456669 98.54344649 -4.14181354 91.41886921 -2.20031738 84.12698364 C-0.71713013 84.13483887 -0.71713013 84.13483887 0.79602051 84.14285278 C22.82186894 84.24893724 44.79086315 84.0278454 66.79968262 83.12698364 C65.57894043 82.70288208 64.35819824 82.27878052 63.10046387 81.84182739 C36.26493099 72.35084541 13.67612863 57.69346085 -0.20031738 32.12698364 C-4.86251067 22.27280238 -7.42154768 12.06782756 -7.20031738 1.12698364 C-4.64764465 -0.14935272 -2.85877901 0.00112088 0 0 Z " fill="#020101" transform="translate(255.2003173828125,78.87301635742188)"/>
<path d="M0 0 C2.23373547 3.58346406 2.24250167 6.52454839 2.22705078 10.69628906 C2.22734283 11.36011597 2.22763489 12.02394287 2.22793579 12.70788574 C2.22654658 14.89393351 2.21100503 17.07963704 2.1953125 19.265625 C2.19158091 20.78448297 2.18873463 22.30334335 2.18673706 23.82220459 C2.1791121 27.81382937 2.15947344 31.80530789 2.1373291 35.796875 C2.11684614 39.87237571 2.10773011 43.94790012 2.09765625 48.0234375 C2.07622639 56.0156995 2.04105358 64.00781469 2 72 C8.93 72 15.86 72 23 72 C22.67 72.66 22.34 73.32 22 74 C19.27734375 74.4140625 19.27734375 74.4140625 15.9375 74.625 C14.28041016 74.73714844 14.28041016 74.73714844 12.58984375 74.8515625 C11.73519531 74.90054688 10.88054687 74.94953125 10 75 C10.33 75.99 10.66 76.98 11 78 C8.03 77.67 5.06 77.34 2 77 C2 86.24 2 95.48 2 105 C1.34 105 0.68 105 0 105 C0 70 0 35 0 0 Z " fill="#0B090C" transform="translate(144,97)"/>
<path d="M0 0 C0.96099609 0.00902344 1.92199219 0.01804687 2.91210938 0.02734375 C5.25417805 0.05064792 7.59569792 0.08335942 9.9375 0.125 C9.9375 0.785 9.9375 1.445 9.9375 2.125 C14.11487474 3.71638085 17.46910785 4.33778058 21.9375 4.125 C21.9375 4.785 21.9375 5.445 21.9375 6.125 C22.67613281 6.29515625 23.41476562 6.4653125 24.17578125 6.640625 C35.10373427 9.25111441 45.00530488 12.8680464 54.9375 18.125 C52.9375 19.125 52.9375 19.125 51.10009766 18.58349609 C50.35808105 18.27492676 49.61606445 17.96635742 48.8515625 17.6484375 C48.01270508 17.30949463 47.17384766 16.97055176 46.30957031 16.62133789 C45.40303711 16.25129639 44.49650391 15.88125488 43.5625 15.5 C36.19812933 12.59230819 28.87677652 10.08675569 21.1875 8.1875 C20.39166504 7.98882324 19.59583008 7.79014648 18.77587891 7.58544922 C10.04474865 5.51692204 1.31651374 4.96267046 -7.625 4.5625 C-8.53830078 4.51931641 -9.45160156 4.47613281 -10.39257812 4.43164062 C-12.615767 4.32688303 -14.83911805 4.22557647 -17.0625 4.125 C-16.7325 9.735 -16.4025 15.345 -16.0625 21.125 C-16.7225 21.125 -17.3825 21.125 -18.0625 21.125 C-18.041875 20.01125 -18.02125 18.8975 -18 17.75 C-17.79869282 14.29284079 -17.79869282 14.29284079 -19.0625 12.125 C-19.28872081 10.42136178 -19.47138473 8.71171299 -19.625 7 C-19.70878906 6.08992188 -19.79257812 5.17984375 -19.87890625 4.2421875 C-19.93949219 3.54351562 -20.00007813 2.84484375 -20.0625 2.125 C-13.22591143 0.34398103 -7.04638717 -0.12749204 0 0 Z " fill="#11100E" transform="translate(302.0625,78.875)"/>
<path d="M0 0 C1.3125 0.29166667 2.625 0.58333333 3.9375 0.875 C4.76378906 1.05675781 5.59007812 1.23851562 6.44140625 1.42578125 C8.03588748 1.78362666 9.62769737 2.15387996 11.21484375 2.54296875 C17.10981679 3.96074708 22.95718699 4.57079085 29 5 C29.495 6.98 29.495 6.98 30 9 C21.75 9 13.5 9 5 9 C5 8.67 5 8.34 5 8 C3.95021973 7.98018066 2.90043945 7.96036133 1.81884766 7.93994141 C-2.06893261 7.86397802 -5.95633403 7.77524702 -9.84375 7.68261719 C-11.52759329 7.64428896 -13.21151955 7.60944288 -14.89550781 7.578125 C-17.31345306 7.53255713 -19.73082528 7.47455077 -22.1484375 7.4140625 C-22.9036972 7.40251129 -23.65895691 7.39096008 -24.43710327 7.37905884 C-29.77225659 7.22774341 -29.77225659 7.22774341 -32 5 C-31.29391602 4.98018066 -30.58783203 4.96036133 -29.86035156 4.93994141 C-26.65653006 4.84459585 -23.45335199 4.73495487 -20.25 4.625 C-19.13882812 4.5940625 -18.02765625 4.563125 -16.8828125 4.53125 C-15.81289063 4.49257812 -14.74296875 4.45390625 -13.640625 4.4140625 C-12.16384277 4.36693115 -12.16384277 4.36693115 -10.65722656 4.31884766 C-7.97187685 3.99662543 -6.34611796 3.28110388 -4 2 C-1.24787881 2.03013271 1.27104753 2.54517459 4 3 C2.68 2.34 1.36 1.68 0 1 C0 0.67 0 0.34 0 0 Z " fill="#0B0A09" transform="translate(330,158)"/>
<path d="M0 0 C1.30195313 0.00322266 2.60390625 0.00644531 3.9453125 0.00976562 C5.32552149 0.01812159 6.70572982 0.02658654 8.0859375 0.03515625 C9.47395676 0.04017124 10.86197772 0.04473415 12.25 0.04882812 C15.65368882 0.06064649 19.05729189 0.07712191 22.4609375 0.09765625 C22.9559375 1.08765625 22.9559375 1.08765625 23.4609375 2.09765625 C24.53408203 2.0203125 24.53408203 2.0203125 25.62890625 1.94140625 C28.93268531 2.12368372 30.86769828 3.04792867 33.7734375 4.59765625 C34.65644531 5.06171875 35.53945312 5.52578125 36.44921875 6.00390625 C37.11308594 6.36484375 37.77695313 6.72578125 38.4609375 7.09765625 C37.8009375 7.75765625 37.1409375 8.41765625 36.4609375 9.09765625 C35.57341797 8.79021484 35.57341797 8.79021484 34.66796875 8.4765625 C33.87777344 8.20714844 33.08757812 7.93773438 32.2734375 7.66015625 C31.49613281 7.39332031 30.71882813 7.12648438 29.91796875 6.8515625 C24.87027949 5.30274847 20.0115641 4.90749282 14.75390625 4.78125 C14.02851151 4.7604689 13.30311676 4.73968781 12.55574036 4.71827698 C10.25339637 4.6532341 7.95094468 4.59410852 5.6484375 4.53515625 C4.08136936 4.4919279 2.51431185 4.44831227 0.94726562 4.40429688 C-2.88140186 4.29759957 -6.710177 4.19620656 -10.5390625 4.09765625 C-10.8690625 5.08765625 -11.1990625 6.07765625 -11.5390625 7.09765625 C-11.8690625 5.77765625 -12.1990625 4.45765625 -12.5390625 3.09765625 C-7.91729379 0.7867719 -5.27815807 -0.02294851 0 0 Z " fill="#11100E" transform="translate(156.5390625,78.90234375)"/>
<path d="M0 0 C-0.33 0.66 -0.66 1.32 -1 2 C-5.94790177 2.0493651 -10.89566083 2.08570269 -15.84375 2.10986328 C-17.52769466 2.11993317 -19.21162179 2.13358988 -20.89550781 2.15087891 C-23.31319501 2.17508426 -25.73065143 2.18647296 -28.1484375 2.1953125 C-28.9036972 2.20563507 -29.65895691 2.21595764 -30.43710327 2.22659302 C-32.2929398 2.22699318 -34.1481928 2.12222716 -36 2 C-36.66 1.34 -37.32 0.68 -38 0 C-33.54210408 -0.19902127 -29.08368537 -0.38210364 -24.625 -0.5625 C-22.74748047 -0.64661133 -22.74748047 -0.64661133 -20.83203125 -0.73242188 C-13.78281236 -1.00922366 -6.99322891 -0.97848067 0 0 Z " fill="#211F1E" transform="translate(336,163)"/>
<path d="M0 0 C-6.11980533 1.40454548 -11.71739294 2.23268915 -18 2 C-18 2.66 -18 3.32 -18 4 C-20.31 3.67 -22.62 3.34 -25 3 C-25.33 2.01 -25.66 1.02 -26 0 C-24.91460937 -0.06058594 -23.82921875 -0.12117187 -22.7109375 -0.18359375 C-21.26561514 -0.26806064 -19.82030318 -0.35270551 -18.375 -0.4375 C-17.66214844 -0.47681641 -16.94929687 -0.51613281 -16.21484375 -0.55664062 C-12.9649773 -0.75044 -9.92768393 -1.01458403 -6.7265625 -1.66015625 C-3.70511047 -2.03675557 -2.50992373 -1.64110398 0 0 Z " fill="#181817" transform="translate(207,172)"/>
<path d="M0 0 C5.87080208 5.4021246 7.93408827 11.68390811 8.3203125 19.58203125 C8.35354415 21.20028231 8.37174786 22.81891103 8.375 24.4375 C8.37741699 25.60949951 8.37741699 25.60949951 8.37988281 26.80517578 C8.30491822 30.64919361 8.16986961 33.74519559 6 37 C5.67 34.69 5.34 32.38 5 30 C5.66 30 6.32 30 7 30 C6.6902353 27.1038504 6.37728812 24.20810424 6.0625 21.3125 C5.97548828 20.49587891 5.88847656 19.67925781 5.79882812 18.83789062 C5.36241272 14.84549781 4.88697624 10.92347148 4 7 C3.01 6.67 2.02 6.34 1 6 C0.67 4.02 0.34 2.04 0 0 Z " fill="#110F0F" transform="translate(240,101)"/>
<path d="M0 0 C0.7425 0.185625 1.485 0.37125 2.25 0.5625 C4.98555755 0.99770234 6.40699621 0.80472531 9 0 C9.66 0 10.32 0 11 0 C11 0.66 11 1.32 11 2 C11.85271484 1.98259766 11.85271484 1.98259766 12.72265625 1.96484375 C17.60670484 1.90776806 22.18503965 2.18043228 27 3 C27 3.33 27 3.66 27 4 C23.81257885 4.05865035 20.62529882 4.09381259 17.4375 4.125 C16.09461914 4.15013672 16.09461914 4.15013672 14.72460938 4.17578125 C9.39910095 4.21479596 5.03629311 3.75475782 0 2 C0 1.34 0 0.68 0 0 Z " fill="#100D0D" transform="translate(311,284)"/>
<path d="M0 0 C0.33 0.99 0.66 1.98 1 3 C-3.99376231 7.56876126 -8.98106241 10.91546509 -15 14 C-15 13.01 -15 12.02 -15 11 C-12.98828125 9.5703125 -12.98828125 9.5703125 -10.3125 8.125 C-6.18728205 5.78445081 -3.12694472 3.54387069 0 0 Z " fill="#0E0D0D" transform="translate(202,151)"/>
<path d="M0 0 C3.28220895 1.64110448 3.74570789 4.69322988 5 8 C5 8.99 5 9.98 5 11 C5.66 11.33 6.32 11.66 7 12 C7.625 15.0625 7.625 15.0625 8 18 C7.34 18.33 6.68 18.66 6 19 C4.99619084 16.20964954 3.9968055 13.41785145 3 10.625 C2.57074219 9.43390625 2.57074219 9.43390625 2.1328125 8.21875 C1.86210937 7.45820312 1.59140625 6.69765625 1.3125 5.9140625 C1.06113281 5.2123291 0.80976563 4.5105957 0.55078125 3.78759766 C0 2 0 2 0 0 Z " fill="#110F11" transform="translate(395,101)"/>
<path d="M0 0 C0.33 0.66 0.66 1.32 1 2 C0.34 2 -0.32 2 -1 2 C-1.226875 2.721875 -1.45375 3.44375 -1.6875 4.1875 C-3.27279974 7.58457087 -5.15923323 9.5749552 -8 12 C-8.99 12 -9.98 12 -11 12 C-9.54601271 10.18401175 -8.08667675 8.37230481 -6.625 6.5625 C-5.40683594 5.04849609 -5.40683594 5.04849609 -4.1640625 3.50390625 C-2 1 -2 1 0 0 Z M-12 13 C-11.67 13.66 -11.34 14.32 -11 15 C-11.66 14.67 -12.32 14.34 -13 14 C-12.67 13.67 -12.34 13.34 -12 13 Z " fill="#0B0A0B" transform="translate(358,264)"/>
<path d="M0 0 C3.51315888 2.34210592 3.83744694 3.54251932 5.1875 7.4375 C5.53167969 8.40558594 5.87585938 9.37367188 6.23046875 10.37109375 C7 13 7 13 7 16 C6.34 16 5.68 16 5 16 C4.1605118 13.89828133 3.32860344 11.79353375 2.5 9.6875 C2.0359375 8.51574219 1.571875 7.34398437 1.09375 6.13671875 C0 3 0 3 0 0 Z " fill="#0F0F0F" transform="translate(407,135)"/>
<path d="M0 0 C0.66 0.33 1.32 0.66 2 1 C-6.5557279 8.92599158 -6.5557279 8.92599158 -12 11 C-12.66 10.67 -13.32 10.34 -14 10 C-9.25 7 -9.25 7 -7 7 C-6.67 6.01 -6.34 5.02 -6 4 C-4.04402816 2.60287726 -2.04563599 1.26220093 0 0 Z " fill="#100E0F" transform="translate(233,156)"/>
<path d="M0 0 C0.67578125 1.67578125 0.67578125 1.67578125 1 4 C-0.14453125 6.54296875 -0.14453125 6.54296875 -1.8125 9.1875 C-2.62654297 10.50814453 -2.62654297 10.50814453 -3.45703125 11.85546875 C-5 14 -5 14 -7 15 C-6.42176904 10.93774452 -5.10882263 8.15237654 -2.9375 4.6875 C-2.38964844 3.80449219 -1.84179688 2.92148438 -1.27734375 2.01171875 C-0.64505859 1.01591797 -0.64505859 1.01591797 0 0 Z " fill="#0F0E0D" transform="translate(245,138)"/>
<path d="M0 0 C4.21936561 -0.34413266 6.30695601 0.46024767 9.75 2.875 C10.52859375 3.40867187 11.3071875 3.94234375 12.109375 4.4921875 C14 6 14 6 15 8 C9.52067211 6.45454854 4.88570819 3.84456788 0 1 C0 0.67 0 0.34 0 0 Z " fill="#100F0E" transform="translate(364,101)"/>
<path d="M0 0 C5.85272256 0.45020943 10.08220119 3.03839227 15 6 C13 7 13 7 9.9609375 6.00390625 C8.77757812 5.52824219 7.59421875 5.05257812 6.375 4.5625 C5.18648437 4.08941406 3.99796875 3.61632812 2.7734375 3.12890625 C1.85820312 2.75636719 0.94296875 2.38382812 0 2 C0 1.34 0 0.68 0 0 Z " fill="#0F0E0B" transform="translate(212,82)"/>
<path d="M0 0 C0.66 0 1.32 0 2 0 C1.53428232 4.75032037 0.85175998 8.12160643 -2 12 C-2.99 12.495 -2.99 12.495 -4 13 C-3.52140759 11.39566191 -3.04210442 9.79153584 -2.5625 8.1875 C-2.29566406 7.29417969 -2.02882812 6.40085938 -1.75390625 5.48046875 C-1.19612127 3.64526945 -0.60655425 1.81966274 0 0 Z " fill="#0C0B09" transform="translate(211,132)"/>
<path d="M0 0 C2.97 0 5.94 0 9 0 C8.67 1.32 8.34 2.64 8 4 C5.69 3.67 3.38 3.34 1 3 C0.67 2.01 0.34 1.02 0 0 Z " fill="#222022" transform="translate(181,172)"/>
<path d="M0 0 C3.2626876 3.08632611 6.02235218 5.93483504 8 10 C7.67 10.66 7.34 11.32 7 12 C5.821389 10.76125579 4.65747085 9.5085199 3.5 8.25 C2.8503125 7.55390625 2.200625 6.8578125 1.53125 6.140625 C0 4 0 4 0 0 Z " fill="#11100E" transform="translate(294,125)"/>
<path d="M0 0 C3.23861303 1.44424635 5.61969163 3.25772247 8.25 5.625 C8.95640625 6.25664062 9.6628125 6.88828125 10.390625 7.5390625 C10.92171875 8.02117187 11.4528125 8.50328125 12 9 C11.34 9.66 10.68 10.32 10 11 C5.86062408 7.69984002 2.41337795 4.82675589 0 0 Z " fill="#0D0C0A" transform="translate(302,138)"/>
<path d="M0 0 C2.52394612 3.12488567 4.39701907 6.31314387 6 10 C5.67 10.66 5.34 11.32 5 12 C1.90407165 8.4912812 0.25805377 5.50802601 -1 1 C-0.67 0.67 -0.34 0.34 0 0 Z " fill="#0B0B09" transform="translate(295,255)"/>
<path d="M0 0 C2.09749995 2.35968744 2.96905704 3.54616994 3.1875 6.75 C3.125625 7.4925 3.06375 8.235 3 9 C3.66 9.33 4.32 9.66 5 10 C4.01 10.33 3.02 10.66 2 11 C1.01 7.7 0.02 4.4 -1 1 C-0.67 0.67 -0.34 0.34 0 0 Z " fill="#080706" transform="translate(442,231)"/>
<path d="M0 0 C4.66091941 1.65897132 8.84148523 3.27097468 13 6 C12.01 6.495 12.01 6.495 11 7 C8.92803369 6.26821134 6.8891448 5.44100997 4.875 4.5625 C3.77929688 4.08941406 2.68359375 3.61632812 1.5546875 3.12890625 C0.71164062 2.75636719 -0.13140625 2.38382812 -1 2 C-0.67 1.34 -0.34 0.68 0 0 Z " fill="#141210" transform="translate(344,91)"/>
<path d="M0 0 C2.97 1.65 5.94 3.3 9 5 C8.67 5.66 8.34 6.32 8 7 C4.06326356 5.68775452 1.77280706 4.08089673 -1 1 C-0.67 0.67 -0.34 0.34 0 0 Z " fill="#0F0F0D" transform="translate(315,149)"/>
<path d="M0 0 C3.3 0 6.6 0 10 0 C9.67 0.99 9.34 1.98 9 3 C2.25 3.125 2.25 3.125 0 2 C0 1.34 0 0.68 0 0 Z " fill="#09090A" transform="translate(313,79)"/>
<path d="M0 0 C2.50037734 2.17424117 3.43628586 3.73045798 4 7 C3.01 7 2.02 7 1 7 C0.34 5.02 -0.32 3.04 -1 1 C-0.67 0.67 -0.34 0.34 0 0 Z " fill="#080806" transform="translate(261,270)"/>
<path d="M0 0 C2.97 0 5.94 0 9 0 C9.33 0.66 9.66 1.32 10 2 C6.18510326 3.46726798 3.70988378 2.43336419 0 1 C0 0.67 0 0.34 0 0 Z " fill="#191817" transform="translate(170,79)"/>
<path d="M0 0 C0.53625 0.37125 1.0725 0.7425 1.625 1.125 C-1.6875 2.25 -1.6875 2.25 -5.375 3.125 C-6.365 2.465 -7.355 1.805 -8.375 1.125 C-2.95961538 -1.09038462 -2.95961538 -1.09038462 0 0 Z " fill="#0D0D0A" transform="translate(212.375,168.875)"/>
</svg>
