<?xml version="1.0" encoding="UTF-8"?>
<svg version="1.1" xmlns="http://www.w3.org/2000/svg" width="555" height="289">
<path d="M0 0 C0.84251312 -0.0049649 1.68502625 -0.00992981 2.55307007 -0.01504517 C5.36017665 -0.02972764 8.16722643 -0.03648461 10.97436523 -0.04199219 C12.93000795 -0.04774586 14.88565065 -0.05350357 16.84129333 -0.05926514 C20.95816308 -0.06979725 25.0750132 -0.07562305 29.19189453 -0.07910156 C34.42660988 -0.08454138 39.66105915 -0.10846183 44.89569187 -0.13707352 C48.94618941 -0.15586725 52.99662559 -0.16091466 57.04716301 -0.16243744 C58.97375861 -0.16543524 60.90035389 -0.1733646 62.8269062 -0.18662262 C100.15303832 -0.42480425 100.15303832 -0.42480425 110.60717773 9.75488281 C111.05706055 10.21894531 111.50694336 10.68300781 111.97045898 11.16113281 C112.96045898 11.49113281 113.95045898 11.82113281 114.97045898 12.16113281 C114.97045898 12.82113281 114.97045898 13.48113281 114.97045898 14.16113281 C115.96045898 14.49113281 116.95045898 14.82113281 117.97045898 15.16113281 C125.85255407 21.97858472 129.83383216 31.37590854 130.90795898 41.59863281 C131.41195531 54.79703661 128.42636092 66.16709781 120.47045898 76.84863281 C111.44656361 86.53744679 97.91824816 92.56496356 85.09936523 94.76660156 C82.79457756 95.14305668 82.79457756 95.14305668 79.97045898 96.16113281 C78.98045898 96.16113281 77.99045898 96.16113281 76.97045898 96.16113281 C78.02233398 96.65613281 79.07420898 97.15113281 80.15795898 97.66113281 C92.05633882 103.63149423 102.88022758 110.27505582 110.40795898 121.41113281 C110.8782251 122.10078125 111.34849121 122.79042969 111.83300781 123.50097656 C116.51649741 130.60553134 119.75304621 138.17464749 123.03198242 145.99560547 C124.48459721 149.34750276 126.12222517 152.59603201 127.78295898 155.84863281 C132.57027192 165.27376728 137.10587069 174.81667792 141.64086914 184.36523438 C142.90620996 187.02602818 144.17787811 189.68370827 145.45092773 192.34082031 C146.18687973 193.88496015 146.92257367 195.42922301 147.65795898 196.97363281 C147.99698242 197.67866943 148.33600586 198.38370605 148.68530273 199.11010742 C150.97045898 203.9327796 150.97045898 203.9327796 150.97045898 206.16113281 C146.05998194 206.40323075 141.14934329 206.61815142 136.23657227 206.80810547 C134.56600356 206.87651028 132.89571997 206.95229712 131.22583008 207.03564453 C128.82336894 207.15426694 126.42112852 207.24618267 124.01733398 207.33300781 C122.89992828 207.39678619 122.89992828 207.39678619 121.75994873 207.46185303 C118.36429774 207.56037817 116.40618021 207.47914542 113.62255859 205.44750977 C111.96460074 203.15302546 110.68460302 200.97278896 109.48999023 198.40722656 C109.05275635 197.47982666 108.61552246 196.55242676 108.16503906 195.59692383 C107.70895264 194.60748779 107.25286621 193.61805176 106.78295898 192.59863281 C106.30173584 191.57374756 105.8205127 190.5488623 105.32470703 189.49291992 C104.3385146 187.3914625 103.35584602 185.28834777 102.37670898 183.18359375 C100.36291207 178.85532884 98.32501038 174.53862306 96.28295898 170.22363281 C95.91799316 169.45100098 95.55302734 168.67836914 95.17700195 167.88232422 C91.87605437 160.91497229 88.43925448 154.02038768 84.96313477 147.13916016 C83.93243062 145.08535666 82.91664297 143.02470367 81.90405273 140.96191406 C78.2364435 133.50447085 74.58861941 126.08837345 69.97045898 119.16113281 C69.42389648 118.32066406 68.87733398 117.48019531 68.31420898 116.61425781 C58.90464976 103.45682331 44.21385074 99.20981116 28.97045898 96.16113281 C28.97045898 132.46113281 28.97045898 168.76113281 28.97045898 206.16113281 C24.57910859 207.03940289 20.96253392 207.2901123 16.51733398 207.29394531 C15.81650696 207.29490204 15.11567993 207.29585876 14.39361572 207.29684448 C12.92118235 207.29752196 11.44874592 207.29569794 9.97631836 207.29150391 C7.71388141 207.28611715 5.45164007 207.2914799 3.18920898 207.29785156 C1.75691688 207.29719134 0.32462489 207.29591132 -1.10766602 207.29394531 C-2.41123047 207.29281738 -3.71479492 207.29168945 -5.05786133 207.29052734 C-8.02954102 207.16113281 -8.02954102 207.16113281 -9.02954102 206.16113281 C-9.12957395 203.52057389 -9.16394426 200.9061028 -9.15652466 198.26501465 C-9.15808465 197.42773756 -9.15964464 196.59046046 -9.1612519 195.72781134 C-9.1652655 192.90022913 -9.16207088 190.07269987 -9.15893555 187.24511719 C-9.16028943 185.22691313 -9.16206929 183.20870932 -9.16424561 181.19050598 C-9.1688215 175.69273338 -9.16702974 170.19497945 -9.16386652 164.6972065 C-9.16134372 158.95743889 -9.16368023 153.21767294 -9.16525269 147.47790527 C-9.16707462 137.83699251 -9.16466746 128.19608739 -9.15991211 118.55517578 C-9.15446945 107.39153286 -9.15623209 96.2279082 -9.16173851 85.06426573 C-9.16626898 75.49827782 -9.16692052 65.93229542 -9.16429985 56.36630678 C-9.1627367 50.64468874 -9.16254432 44.92307929 -9.16583633 39.20146179 C-9.16871408 33.82371346 -9.16674114 28.44598879 -9.16094208 23.06824303 C-9.15961396 21.08844225 -9.16000947 19.1086395 -9.16220474 17.12883949 C-9.16491422 14.43828263 -9.16153762 11.74780285 -9.15652466 9.05725098 C-9.15875538 8.26320154 -9.1609861 7.4691521 -9.16328442 6.65104055 C-9.13529939 -1.0270282 -6.92270303 0.00963132 0 0 Z M27.97045898 4.16113281 C27.97045898 32.87113281 27.97045898 61.58113281 27.97045898 91.16113281 C47.47096414 91.16113281 67.02885799 88.98923972 82.04858398 75.32128906 C88.83351093 67.6951415 93.22885624 58.30760672 93.97045898 48.16113281 C94.04780273 47.26136719 94.12514648 46.36160156 94.20483398 45.43457031 C94.60086127 37.09599583 92.51636132 30.65565768 88.97045898 23.16113281 C88.59791992 22.37351562 88.22538086 21.58589844 87.84155273 20.77441406 C83.43296517 12.70992462 75.47559333 8.77809723 66.97045898 6.16113281 C53.93065889 3.21323816 53.93065889 3.21323816 27.97045898 4.16113281 Z " fill="#FDFDFD" transform="translate(67.029541015625,34.8388671875)"/>
<path d="M0 0 C5.09031755 -0.04936158 10.18049643 -0.08570105 15.27099609 -0.10986328 C17.00344265 -0.11993376 18.73587216 -0.13359089 20.46826172 -0.15087891 C22.95544639 -0.17508162 25.44240675 -0.18647239 27.9296875 -0.1953125 C28.70682098 -0.20563507 29.48395447 -0.21595764 30.28463745 -0.22659302 C32.19125493 -0.22699271 34.09731036 -0.1223214 36 0 C38.70395316 2.70395316 39.4883217 5.82884138 40.6875 9.375 C40.94877686 10.13103516 41.21005371 10.88707031 41.47924805 11.66601562 C42.03883834 13.28536831 42.5961399 14.90551338 43.15136719 16.52636719 C44.5225413 20.52312671 45.91749282 24.51150929 47.3125 28.5 C47.59665771 29.31500977 47.88081543 30.13001953 48.17358398 30.96972656 C49.86780187 35.81564373 51.59125803 40.64998196 53.33984375 45.4765625 C53.73969482 46.58064453 54.1395459 47.68472656 54.55151367 48.82226562 C55.32910243 50.96510953 56.10907153 53.10709174 56.8918457 55.24804688 C58.87951082 60.72378668 60.72356191 66.20023895 62.32226562 71.80273438 C63.01642997 74.0532672 63.84736079 76.20051869 64.75 78.375 C67.88896653 85.99992252 70.46890363 93.83588096 73.17138672 101.62304688 C74.26323007 104.75509958 75.37925367 107.87818513 76.5 111 C78.18671321 115.70185087 79.84342883 120.41316923 81.48510742 125.13085938 C84.42771646 133.58490651 87.45584028 142.00049964 90.57666016 150.39038086 C92.55665485 155.73411014 94.39061334 161.11257198 96.15625 166.53125 C97.26571738 169.77746937 98.58094857 172.87808685 100 176 C102.25169962 175.15796739 102.25169962 175.15796739 102.89794922 172.59838867 C103.19717285 171.5488501 103.49639648 170.49931152 103.8046875 169.41796875 C104.14113281 168.25716797 104.47757812 167.09636719 104.82421875 165.90039062 C105.34435547 164.06250977 105.34435547 164.06250977 105.875 162.1875 C108.13636739 154.2985092 110.45899465 146.45945337 113.09375 138.6862793 C114.31043503 135.0798177 115.44250998 131.44989879 116.5625 127.8125 C117.86380046 123.60585518 119.18267324 119.41084839 120.625 115.25 C123.29494952 107.27049179 125.24117497 99.31596221 125.79614258 90.90673828 C125.92335118 89.09291114 126.07079361 87.28025335 126.2487793 85.47070312 C127.14418101 76.31216532 127.19565095 67.19257156 127.1875 58 C127.1882251 57.16459686 127.1889502 56.32919373 127.18969727 55.46847534 C127.18797118 37.26889083 126.24086 19.15252778 125 1 C128.06594594 -0.53297297 131.27111853 -0.12131455 134.6328125 -0.09765625 C135.76056595 -0.09553383 135.76056595 -0.09553383 136.91110229 -0.09336853 C139.3157751 -0.08776465 141.72035527 -0.07521157 144.125 -0.0625 C145.75390491 -0.0574855 147.38281127 -0.0529225 149.01171875 -0.04882812 C153.00784827 -0.03779397 157.00390842 -0.02052679 161 0 C162.23731119 4.11620355 161.39347769 6.99878746 160.125 11 C159.90158936 11.7307373 159.67817871 12.46147461 159.44799805 13.21435547 C158.64626278 15.81424953 157.82507665 18.40741976 157 21 C156.68208496 22.00192383 156.36416992 23.00384766 156.03662109 24.03613281 C152.97478488 33.66071373 149.85920225 43.26786967 146.74316406 52.875 C145.47310157 56.79117922 144.20480109 60.70792637 142.9375 64.625 C142.62480164 65.59075455 142.62480164 65.59075455 142.30578613 66.57601929 C138.96701631 76.89572075 135.73271561 87.24525693 132.59936523 97.62939453 C131.29153792 101.93864859 129.96439428 106.20914263 128.359375 110.41796875 C127.28500909 113.24898467 126.4125028 115.94539685 125.6875 118.875 C124.30442573 124.11302595 122.65259529 129.23850419 120.9375 134.375 C120.6799292 135.14827637 120.4223584 135.92155273 120.15698242 136.71826172 C119.13938358 139.74241667 118.11065385 142.72946907 116.90234375 145.68359375 C115.87547728 148.31966222 115.2509878 150.92947138 114.625 153.6875 C113.44001897 158.5967071 111.88598698 163.12163448 109.8671875 167.74609375 C108.94091241 169.95695788 108.94091241 169.95695788 108.5703125 172.22265625 C107.91087215 175.4340404 106.87859701 178.42142951 105.8203125 181.52050781 C104.98399297 184.04838316 104.23119552 186.58829109 103.5 189.1484375 C103.12875 190.43814453 103.12875 190.43814453 102.75 191.75390625 C102.24379802 193.5229767 101.74394231 195.29387369 101.25 197.06640625 C101.0025 197.91847656 100.755 198.77054688 100.5 199.6484375 C100.2834375 200.41333496 100.066875 201.17823242 99.84375 201.96630859 C98.86146404 204.33391336 98.08531153 205.4990453 96 207 C93.57983398 207.35644531 93.57983398 207.35644531 90.74609375 207.328125 C89.21758789 207.32039063 89.21758789 207.32039063 87.65820312 207.3125 C86.59537109 207.291875 85.53253906 207.27125 84.4375 207.25 C83.37080078 207.24484375 82.30410156 207.2396875 81.20507812 207.234375 C73.30872253 207.15436126 73.30872253 207.15436126 71 206 C70.18527993 204.059977 69.466786 202.07928351 68.79296875 200.0859375 C68.37354004 198.85657471 67.95411133 197.62721191 67.52197266 196.3605957 C67.07701496 195.0321085 66.63219317 193.70357577 66.1875 192.375 C65.73291164 191.03517882 65.27767077 189.69557885 64.82177734 188.35620117 C62.17236917 180.55653657 59.58448501 172.73672286 57.00390625 164.9140625 C56.10201316 162.29611603 55.11925554 159.74596079 54.0625 157.1875 C52.21614749 152.71194152 50.69435901 148.16022665 49.1875 143.5625 C47.215391 137.55860594 45.15344905 131.60564807 42.9375 125.6875 C39.32774799 116.02508556 35.91279884 106.29574692 32.5 96.5625 C32.21420074 95.74744995 31.92840149 94.9323999 31.63394165 94.09265137 C29.98858607 89.39883163 28.34525809 84.70430471 26.70300293 80.00939941 C25.75336269 77.29503441 24.80250964 74.58109488 23.8515625 71.8671875 C21.65301138 65.59056301 19.45573479 59.31354742 17.2734375 53.03125 C13.54824905 42.32274466 9.69961179 31.6666186 5.75488281 21.03710938 C4.14748455 16.69942144 2.56577366 12.35285079 1 8 C0.566875 6.824375 0.13375 5.64875 -0.3125 4.4375 C-1 2 -1 2 0 0 Z M100 177 C100.66 177.66 101.32 178.32 102 179 C102 178.34 102 177.68 102 177 C101.34 177 100.68 177 100 177 Z " fill="#FDFDFD" transform="translate(336,35)"/>
<path d="M0 0 C44.55 0 89.1 0 135 0 C135.69857313 4.89001191 136.09318089 8.58562688 135.87890625 13.37109375 C135.83056641 14.52158203 135.78222656 15.67207031 135.73242188 16.85742188 C135.67634766 18.03884766 135.62027344 19.22027344 135.5625 20.4375 C135.51029297 21.64599609 135.45808594 22.85449219 135.40429688 24.09960938 C135.27529246 27.06671084 135.1403565 30.03341748 135 33 C130.07937368 31.51308177 125.67998551 29.45888782 121.125 27.125 C120.45597656 26.78597656 119.78695312 26.44695313 119.09765625 26.09765625 C118.42863281 25.75863281 117.75960937 25.41960938 117.0703125 25.0703125 C116.39258789 24.72709961 115.71486328 24.38388672 115.01660156 24.03027344 C113.71667711 23.36614738 112.42132083 22.69296427 111.13183594 22.00878906 C101.26765211 16.86513972 90.51195369 13.55528488 80 10 C79.24090332 9.74089844 78.48180664 9.48179688 77.69970703 9.21484375 C64.82745515 4.96754108 51.42626899 5.17827921 38 5 C39.39039896 22.74315092 42.25791226 40.11918501 53.828125 54.23828125 C55 56 55 56 55 59 C55.87978516 59.38091797 55.87978516 59.38091797 56.77734375 59.76953125 C59.23692357 61.13116156 60.67532533 62.61283066 62.5625 64.6875 C76.22203253 78.57343362 93.48233488 81.70857866 112 84 C112.33 85.32 112.66 86.64 113 88 C108.69284277 89.63601647 105.16585358 90.24236164 100.56738281 90.21118164 C99.31298401 90.20780289 98.05858521 90.20442413 96.76617432 90.20094299 C95.41182389 90.18741267 94.05747413 90.17381552 92.703125 90.16015625 C91.30402033 90.15387951 89.90491064 90.14864152 88.50579834 90.14439392 C84.83717574 90.13114058 81.16872213 90.10672271 77.50018311 90.07904053 C71.61470452 90.03577786 65.72917798 90.0062263 59.84358978 89.9829998 C57.78834377 89.97276934 55.73323288 89.95572662 53.67803955 89.93800354 C52.43624939 89.93147263 51.19445923 89.92494171 49.91503906 89.91821289 C48.81838928 89.90995987 47.7217395 89.90170685 46.59185791 89.89320374 C44.01433719 89.82199339 44.01433719 89.82199339 42 91 C41.50192725 93.93924412 41.14349248 96.78691483 40.875 99.75 C40.7497998 101.09179321 40.7497998 101.09179321 40.62207031 102.46069336 C39.2287329 118.77269354 39.79971408 134.79471956 42 151 C42.09120117 151.73734375 42.18240234 152.4746875 42.27636719 153.234375 C43.66994556 164.26564797 46.80739927 173.19432987 52 183 C52.4125 183.86367187 52.825 184.72734375 53.25 185.6171875 C57.60559669 194.35862807 64.23212404 201.26107502 73.58984375 204.4140625 C80.07771139 205.99133988 86.13563956 205.36180369 92 202 C104.81734683 192.47912736 114.94373482 177.16879553 120 162 C122.9217832 162.3130482 123.85149204 162.81966891 125.75 165.125 C126.4925 166.07375 127.235 167.0225 128 168 C130.58625298 170.42779547 133.29232473 172.70927658 136 175 C137.33374065 176.1453592 138.66710528 177.29115647 140 178.4375 C140.99 179.283125 141.98 180.12875 143 181 C142.11829813 186.78856448 137.38366647 189.58914718 133 193 C124.8707919 198.9049458 116.52156134 203.67791679 107 207 C106.1440625 207.30679688 105.288125 207.61359375 104.40625 207.9296875 C84.77155471 214.13945559 65.41258929 210.23006296 47.21875 201.6953125 C26.52651295 190.34145516 13.35368785 169.03494752 6.59765625 147.05761719 C2.01087644 131.26620369 -3.79494539 99.58989078 4 84 C26.11 83.67 48.22 83.34 71 83 C67.7 82.01 64.4 81.02 61 80 C58.28570256 78.80747199 55.68514454 77.60861151 53.0625 76.25 C52.37357666 75.89566895 51.68465332 75.54133789 50.97485352 75.17626953 C48.97417295 74.13355283 46.98507168 73.07208428 45 72 C44.02804688 71.47664063 43.05609375 70.95328125 42.0546875 70.4140625 C34.14296065 65.76149477 21.01191004 57.03573013 18 48 C17.34 48 16.68 48 16 48 C7.9275271 37.45234377 2.64724546 27.32131288 0.1875 14.25 C0.05093994 13.52828613 -0.08562012 12.80657227 -0.22631836 12.06298828 C-0.99508641 7.50314373 -0.78855964 4.73135782 0 0 Z " fill="#FDFDFD" transform="translate(197,35)"/>
<path d="M0 0 C0.33 0 0.66 0 1 0 C0.54999868 5.04001474 -0.3072744 9.16106657 -2.19140625 13.83984375 C-3.06033993 16.16119799 -3.69328862 18.47509792 -4.3125 20.875 C-5.69557427 26.11302595 -7.34740471 31.23850419 -9.0625 36.375 C-9.3200708 37.14827637 -9.5776416 37.92155273 -9.84301758 38.71826172 C-10.87206152 41.77642984 -11.91676964 44.7953681 -13.1328125 47.78515625 C-13.95962921 49.89689083 -14.41004291 51.83792951 -14.8125 54.0625 C-15.76928 58.12690143 -17.46757454 59.70392345 -21 62 C-21.66 62.66 -22.32 63.32 -23 64 C-22.44497511 58.132594 -21.21347572 53.04245393 -19.25 47.5 C-18.70570158 45.91842573 -18.16276014 44.33638388 -17.62109375 42.75390625 C-17.34894043 41.96258301 -17.07678711 41.17125977 -16.79638672 40.35595703 C-15.57261774 36.73567174 -14.43853152 33.08915269 -13.3125 29.4375 C-11.80835877 24.57282949 -10.25746276 19.72943543 -8.625 14.90625 C-7.65950616 11.96149378 -6.82607385 8.98657468 -6 6 C-4.35 5.67 -2.7 5.34 -1 5 C-0.67 3.35 -0.34 1.7 0 0 Z " fill="#F8F8F7" transform="translate(466,133)"/>
<path d="M0 0 C0.66 0 1.32 0 2 0 C2.268125 1.134375 2.53625 2.26875 2.8125 3.4375 C3.204375 4.613125 3.59625 5.78875 4 7 C4.99 7.33 5.98 7.66 7 8 C1.67784376 10.6049076 -2.73062734 11.55735489 -8.625 11.8125 C-9.73101562 11.88887695 -9.73101562 11.88887695 -10.859375 11.96679688 C-15.07926082 12.1898912 -18.2188857 11.9353925 -22 10 C-20 7 -20 7 -17.42578125 6.41015625 C-16.39839844 6.29542969 -15.37101562 6.18070313 -14.3125 6.0625 C-8.76586712 5.27583813 -4.09549681 4.09549681 0 0 Z " fill="#F7F6F7" transform="translate(293,234)"/>
<path d="M0 0 C4.02992782 0.55312735 8.02022924 1.1558062 12 2 C12 2.66 12 3.32 12 4 C10.68 4.33 9.36 4.66 8 5 C17.57 5 27.14 5 37 5 C36.67 5.66 36.34 6.32 36 7 C31.26512693 7.95896632 26.78537199 8.07141488 21.97265625 7.87890625 C20.04389648 7.80639648 20.04389648 7.80639648 18.07617188 7.73242188 C16.73827544 7.67591872 15.40038487 7.6192764 14.0625 7.5625 C12.69728806 7.50918787 11.33205364 7.45644834 9.96679688 7.40429688 C6.64426693 7.2751526 3.32207839 7.1402083 0 7 C-1.125 2.25 -1.125 2.25 0 0 Z " fill="#F3F2F0" transform="translate(273,117)"/>
<path d="M0 0 C0.66 0 1.32 0 2 0 C6.68044151 8.65664992 11.2562325 17.33931104 15.4375 26.25 C15.76685547 26.95181396 16.09621094 27.65362793 16.43554688 28.37670898 C18.06293498 31.87992519 19.60998431 35.3957382 21 39 C20.01 39.495 20.01 39.495 19 40 C13.66666667 29.33333333 8.33333333 18.66666667 3 8 C2.42894531 6.89914063 1.85789063 5.79828125 1.26953125 4.6640625 C0 2 0 2 0 0 Z " fill="#F5F5F5" transform="translate(141,158)"/>
<path d="M0 0 C0.33 0 0.66 0 1 0 C0.99476318 0.78536133 0.98952637 1.57072266 0.98413086 2.37988281 C0.96310193 6.00324678 0.95025846 9.62659783 0.9375 13.25 C0.92912109 14.48492187 0.92074219 15.71984375 0.91210938 16.9921875 C0.89178114 24.71691504 1.20994685 32.31501847 2 40 C-1 38 -1 38 -1.51171875 36.1015625 C-1.96929951 29.65475804 -2.12426961 23.21131825 -2.1875 16.75 C-2.20063232 15.89873535 -2.21376465 15.0474707 -2.22729492 14.17041016 C-2.23379785 9.05110226 -1.65786999 4.84910591 0 0 Z " fill="#F9F9F9" transform="translate(201,128)"/>
<path d="M0 0 C2.3828125 -0.29296875 2.3828125 -0.29296875 5.125 -0.1875 C6.03507812 -0.16042969 6.94515625 -0.13335937 7.8828125 -0.10546875 C8.58148438 -0.07066406 9.28015625 -0.03585938 10 0 C10 0.33 10 0.66 10 1 C11.7015625 1.185625 11.7015625 1.185625 13.4375 1.375 C14.613125 1.58125 15.78875 1.7875 17 2 C17.33 2.66 17.66 3.32 18 4 C4.3667426 5.51708428 4.3667426 5.51708428 -2 3 C-1.34 2.01 -0.68 1.02 0 0 Z " fill="#ECEBEC" transform="translate(273,241)"/>
<path d="M0 0 C1.08333427 3.25000281 0.92291149 5.05324123 -0.25 8.25 C-0.5284375 9.02988281 -0.806875 9.80976563 -1.09375 10.61328125 C-1.68755912 12.17714924 -2.29138655 13.7372582 -2.90625 15.29296875 C-3.64813742 17.17859927 -4.32910817 19.08795827 -5 21 C-4.67 21.66 -4.34 22.32 -4 23 C-4.66 23 -5.32 23 -6 23 C-6.33 23.66 -6.66 24.32 -7 25 C-7.80039322 16.19567458 -4.22616658 7.60709985 0 0 Z M-3 20 C-2.67 20.66 -2.34 21.32 -2 22 C-2.66 21.67 -3.32 21.34 -4 21 C-3.67 20.67 -3.34 20.34 -3 20 Z " fill="#EFEFEF" transform="translate(460,142)"/>
<path d="M0 0 C0.33 0 0.66 0 1 0 C1.02934711 3.49998201 1.04691445 6.99993179 1.0625 10.5 C1.07087891 11.48226562 1.07925781 12.46453125 1.08789062 13.4765625 C1.10659124 19.08674757 0.838879 24.45150899 0 30 C-0.66 30 -1.32 30 -2 30 C-1.86076952 25.93724554 -1.71246082 21.87487143 -1.5625 17.8125 C-1.52318359 16.66201172 -1.48386719 15.51152344 -1.44335938 14.32617188 C-1.38051758 12.65844727 -1.38051758 12.65844727 -1.31640625 10.95703125 C-1.27974854 9.93585205 -1.24309082 8.91467285 -1.20532227 7.86254883 C-1.01159937 5.16171537 -0.59548047 2.63833872 0 0 Z " fill="#F0F2EF" transform="translate(465,91)"/>
<path d="M0 0 C0.99 0.33 1.98 0.66 3 1 C2 3 1 5 0 7 C-2.97 7 -5.94 7 -9 7 C-9 6.01 -9 5.02 -9 4 C-8.43410156 3.79503906 -7.86820312 3.59007812 -7.28515625 3.37890625 C-6.55167969 3.10949219 -5.81820313 2.84007812 -5.0625 2.5625 C-4.33160156 2.29566406 -3.60070312 2.02882812 -2.84765625 1.75390625 C-1.01694322 1.14613052 -1.01694322 1.14613052 0 0 Z " fill="#FEFDFD" transform="translate(290,236)"/>
<path d="M0 0 C4.23352111 3.62699946 5.50646873 8.78378631 7 14 C7.25 17.6875 7.25 17.6875 7 20 C4.82484141 16.73726211 3.68988059 13.69089287 2.375 10 C1.70597656 8.14375 1.70597656 8.14375 1.0234375 6.25 C0 3 0 3 0 0 Z " fill="#EFEFEF" transform="translate(400,116)"/>
<path d="M0 0 C0.33 0 0.66 0 1 0 C0.37741748 6.84840775 -1.03619501 16.03619501 -6 21 C-5.20472874 13.6835044 -3.46819817 6.53102253 0 0 Z " fill="#F0EFEF" transform="translate(480,89)"/>
<path d="M0 0 C5.11365014 1.0681847 10.07227969 2.23107476 15 4 C15 4.66 15 5.32 15 6 C15.99 6.33 16.98 6.66 18 7 C11.38914524 6.51030705 6.05022986 4.66557258 0 2 C0 1.34 0 0.68 0 0 Z " fill="#EFEFEF" transform="translate(275,42)"/>
<path d="M0 0 C0.33 0 0.66 0 1 0 C1.66 6.6 2.32 13.2 3 20 C2.01 19.34 1.02 18.68 0 18 C-0.34057617 16.12060547 -0.34057617 16.12060547 -0.29296875 13.8671875 C-0.28330078 13.06152344 -0.27363281 12.25585938 -0.26367188 11.42578125 C-0.23853516 10.58402344 -0.21339844 9.74226562 -0.1875 8.875 C-0.17396484 8.02550781 -0.16042969 7.17601562 -0.14648438 6.30078125 C-0.11108219 4.20025163 -0.05727401 2.10004707 0 0 Z " fill="#F0F0F0" transform="translate(200,148)"/>
<path d="M0 0 C0.99 0.33 1.98 0.66 3 1 C3.94921875 3.43359375 3.94921875 3.43359375 4.6875 6.4375 C4.93886719 7.42621094 5.19023437 8.41492188 5.44921875 9.43359375 C6 12 6 12 6 14 C5.34 14 4.68 14 4 14 C3.32739649 12.23141309 2.66211605 10.46003984 2 8.6875 C1.62875 7.70136719 1.2575 6.71523437 0.875 5.69921875 C0 3 0 3 0 0 Z " fill="#F3F3F3" transform="translate(378,155)"/>
<path d="M0 0 C0.66 0 1.32 0 2 0 C2.8466034 1.38782485 3.67675339 2.78569397 4.5 4.1875 C4.9640625 4.96480469 5.428125 5.74210938 5.90625 6.54296875 C7.10729647 9.24103386 7.20741043 11.0806982 7 14 C3.42242307 9.80559946 0 5.69511947 0 0 Z " fill="#F4F4F4" transform="translate(178,160)"/>
<path d="M0 0 C4.29 1.65 8.58 3.3 13 5 C12.67 5.66 12.34 6.32 12 7 C7.14036821 6.39254603 3.2594482 4.27241033 -1 2 C-0.67 1.34 -0.34 0.68 0 0 Z " fill="#F5F4F5" transform="translate(249,108)"/>
<path d="M0 0 C1.34611285 4.03833855 0.43538136 6.0356134 -1 10 C-3.125 12.9375 -3.125 12.9375 -5 15 C-4.43174347 9.45949887 -2.37113483 4.96284034 0 0 Z " fill="#F2F2F2" transform="translate(161,87)"/>
<path d="M0 0 C5.36716665 -0.83861979 8.79627239 2.07929595 13 5 C10.34501768 6.0169313 9.30844625 6.13022151 6.640625 5.00390625 C5.85171875 4.52824219 5.0628125 4.05257812 4.25 3.5625 C3.45078125 3.08941406 2.6515625 2.61632813 1.828125 2.12890625 C1.22484375 1.75636719 0.6215625 1.38382813 0 1 C0 0.67 0 0.34 0 0 Z " fill="#F0F0F0" transform="translate(301,52)"/>
<path d="M0 0 C4.02992782 0.55312735 8.02022924 1.1558062 12 2 C12 2.66 12 3.32 12 4 C7.01137151 4.29344873 4.03770942 4.05887078 0 1 C0 0.67 0 0.34 0 0 Z " fill="#E0E0DE" transform="translate(273,117)"/>
<path d="M0 0 C0.90492188 0.02320313 1.80984375 0.04640625 2.7421875 0.0703125 C4.10730469 0.09738281 4.10730469 0.09738281 5.5 0.125 C6.19867188 0.14820313 6.89734375 0.17140625 7.6171875 0.1953125 C5.3042393 2.5082607 4.13813875 2.69112225 0.9921875 3.3203125 C0.17492187 3.48789063 -0.64234375 3.65546875 -1.484375 3.828125 C-2.42410156 4.00988281 -2.42410156 4.00988281 -3.3828125 4.1953125 C-3.7128125 3.5353125 -4.0428125 2.8753125 -4.3828125 2.1953125 C-2.3828125 0.1953125 -2.3828125 0.1953125 0 0 Z " fill="#F3F2F2" transform="translate(275.3828125,240.8046875)"/>
<path d="M0 0 C3 1 3 1 4.203125 2.7421875 C4.54859375 3.44601563 4.8940625 4.14984375 5.25 4.875 C5.60578125 5.57367188 5.9615625 6.27234375 6.328125 6.9921875 C7 9 7 9 6 12 C6 11.34 6 10.68 6 10 C5.01 9.67 4.02 9.34 3 9 C1.875 6.125 1.875 6.125 1 3 C0.67 2.01 0.34 1.02 0 0 Z " fill="#F3F3F3" transform="translate(209,225)"/>
<path d="M0 0 C1.44010481 0.25662245 2.8770687 0.53090821 4.3125 0.8125 C5.11300781 0.96332031 5.91351563 1.11414063 6.73828125 1.26953125 C9.23445587 2.07572236 10.32422106 3.02052002 12 5 C7.80530429 4.40075776 3.99000166 3.42500059 0 2 C0 1.34 0 0.68 0 0 Z " fill="#F4F4F4" transform="translate(109,132)"/>
<path d="M0 0 C0.33 0.99 0.66 1.98 1 3 C1.66 3.33 2.32 3.66 3 4 C4.03145371 5.30915279 5.03542166 6.64082143 6 8 C5.34 8 4.68 8 4 8 C4 8.66 4 9.32 4 10 C3.34 10 2.68 10 2 10 C-0.09350689 6.5980513 -0.17942163 3.94727588 0 0 Z " fill="#F1F1F1" transform="translate(353,82)"/>
<path d="M0 0 C0.66 0 1.32 0 2 0 C5.42857143 8.42857143 5.42857143 8.42857143 5 13 C2.53698577 10.53698577 2.23233479 8.72639964 1.375 5.375 C1.11460937 4.37210938 0.85421875 3.36921875 0.5859375 2.3359375 C0.39257812 1.56507812 0.19921875 0.79421875 0 0 Z " fill="#F1F1F1" transform="translate(377,52)"/>
<path d="M0 0 C2 1 2 1 3.1875 3.8125 C4 7 4 7 3 11 C1.68 7.7 0.36 4.4 -1 1 C-0.67 0.67 -0.34 0.34 0 0 Z " fill="#EAEAEA" transform="translate(422,177)"/>
<path d="M0 0 C2 0 2 0 3.5078125 1.4609375 C4.04148438 2.09257813 4.57515625 2.72421875 5.125 3.375 C5.66382813 4.00148438 6.20265625 4.62796875 6.7578125 5.2734375 C8 7 8 7 8 9 C5.1248055 7.71111971 2.9928436 6.46733017 1 4 C0.3125 1.8125 0.3125 1.8125 0 0 Z " fill="#F7F7F7" transform="translate(214,81)"/>
<path d="M0 0 C0.66 0 1.32 0 2 0 C3.66666667 3.33333333 5.33333333 6.66666667 7 10 C5.109375 9.78515625 5.109375 9.78515625 3 9 C1.953125 6.93359375 1.953125 6.93359375 1.25 4.4375 C1.00765625 3.61121094 0.7653125 2.78492188 0.515625 1.93359375 C0.34546875 1.29550781 0.1753125 0.65742188 0 0 Z " fill="#F4F3F4" transform="translate(177,231)"/>
<path d="M0 0 C1.90318884 2.85478326 2.4619099 4.41941308 3.125 7.6875 C3.29257812 8.49574219 3.46015625 9.30398437 3.6328125 10.13671875 C3.75398438 10.75160156 3.87515625 11.36648437 4 12 C3.01 11.67 2.02 11.34 1 11 C0.67 7.37 0.34 3.74 0 0 Z " fill="#F4F4F4" transform="translate(426,186)"/>
<path d="M0 0 C2.04219706 1.69179328 2.91793306 2.63727666 3.51171875 5.26171875 C3.56972656 6.06222656 3.62773437 6.86273438 3.6875 7.6875 C3.75324219 8.49574219 3.81898438 9.30398437 3.88671875 10.13671875 C3.92410156 10.75160156 3.96148437 11.36648437 4 12 C1.49484216 9.49484216 0.94900914 7.38931835 0 4 C0 2.68 0 1.36 0 0 Z " fill="#F1F1F1" transform="translate(408,138)"/>
<path d="M0 0 C0.33 0 0.66 0 1 0 C0.88637738 1.4800841 0.75877092 2.95910074 0.625 4.4375 C0.52058594 5.67306641 0.52058594 5.67306641 0.4140625 6.93359375 C0.27742188 7.61550781 0.14078125 8.29742187 0 9 C-0.99 9.495 -0.99 9.495 -2 10 C-3.05236973 6.65155086 -3.20005388 5.40920111 -1.625 2.1875 C-1.08875 1.465625 -0.5525 0.74375 0 0 Z " fill="#F5F5F5" transform="translate(435,230)"/>
<path d="M0 0 C0.99 0.33 1.98 0.66 3 1 C3.73046875 3.06640625 3.73046875 3.06640625 4.1875 5.5625 C4.34605469 6.38878906 4.50460937 7.21507812 4.66796875 8.06640625 C4.77753906 8.70449219 4.88710938 9.34257812 5 10 C4.34 10 3.68 10 3 10 C0 3.375 0 3.375 0 0 Z " fill="#EEEEF1" transform="translate(432,207)"/>
<path d="M0 0 C2.91227269 3.28804981 4.49701212 5.59885603 5 10 C4.34 10 3.68 10 3 10 C0.96564469 6.27034861 0 4.33094958 0 0 Z " fill="#F3F3F3" transform="translate(167,209)"/>
<path d="M0 0 C0.66 0 1.32 0 2 0 C1.34 2.97 0.68 5.94 0 9 C-0.66 9 -1.32 9 -2 9 C-1.125 1.125 -1.125 1.125 0 0 Z " fill="#EFEFEF" transform="translate(469,122)"/>
<path d="M0 0 C0.66 0 1.32 0 2 0 C2.99 2.31 3.98 4.62 5 7 C4.01 7 3.02 7 2 7 C0.5393715 4.35261084 0 3.10551666 0 0 Z " fill="#F3F3F3" transform="translate(343,56)"/>
</svg>
